<svg width="50" height="50" viewBox="0 0 50 50" fill="none" xmlns="http://www.w3.org/2000/svg">
<path d="M25 50C38.8071 50 50 38.8071 50 25C50 11.1929 38.8071 0 25 0C11.1929 0 0 11.1929 0 25C0 38.8071 11.1929 50 25 50Z" fill="url(#paint0_linear_107_1715)"/>
<path d="M25.0004 47.5628C37.4615 47.5628 47.5633 37.461 47.5633 24.9999C47.5633 12.5388 37.4615 2.43701 25.0004 2.43701C12.5393 2.43701 2.4375 12.5388 2.4375 24.9999C2.4375 37.461 12.5393 47.5628 25.0004 47.5628Z" fill="url(#paint1_linear_107_1715)"/>
<g opacity="0.84">
<path d="M5.70801 20.7075H7.5948V23.0975H7.15455V21.1163H6.16398V23.0975H5.72373V20.7075H5.70801Z" fill="url(#paint2_linear_107_1715)"/>
<path d="M8.41211 20.7075H9.33979C9.59136 20.7075 9.79576 20.7861 9.95299 20.9276C10.1102 21.0691 10.1888 21.2578 10.1888 21.5094C10.1888 21.7453 10.1102 21.9339 9.96872 22.0754C9.82721 22.217 9.60708 22.2956 9.30834 22.2956H8.85236V23.1132H8.41211V20.7075ZM8.86809 21.0849V21.9182H9.26117C9.57564 21.9182 9.73287 21.7767 9.73287 21.4937C9.73287 21.4151 9.71714 21.3522 9.70142 21.305C9.66997 21.2578 9.65425 21.2107 9.6228 21.1792C9.59136 21.1478 9.54419 21.132 9.49702 21.1163C9.44985 21.1006 9.40268 21.1006 9.35551 21.0849C9.32406 21.0849 9.27689 21.0849 9.214 21.0849H8.86809Z" fill="url(#paint3_linear_107_1715)"/>
<path d="M12.7524 20.7075V23.0975H12.3122V21.5409L11.243 22.8144V23.0975H10.8027V20.7075H11.243V22.2484L12.3122 20.9748V20.7075H12.7524Z" fill="url(#paint4_linear_107_1715)"/>
<path d="M13.5693 20.7075H14.6385C14.8744 20.7075 15.0473 20.7704 15.1731 20.8805C15.2989 20.9905 15.3618 21.132 15.3618 21.305C15.3618 21.3836 15.3461 21.4465 15.3303 21.5094C15.2989 21.5723 15.2675 21.6352 15.2046 21.6981C15.1417 21.761 15.063 21.7924 14.9844 21.8081C15.1102 21.8396 15.236 21.9025 15.3303 21.9968C15.4404 22.1069 15.4876 22.2484 15.4876 22.4371C15.4876 22.6258 15.4247 22.783 15.2989 22.9088C15.1731 23.0346 14.9687 23.0975 14.6857 23.0975H13.5851V20.7075H13.5693ZM14.0096 21.0692V21.6666H14.4656C14.5914 21.6666 14.6857 21.6509 14.78 21.6037C14.8744 21.5566 14.9058 21.478 14.9058 21.3679C14.9058 21.2578 14.8586 21.1792 14.78 21.1478C14.7014 21.1006 14.5914 21.0849 14.4813 21.0849H14.0096V21.0692ZM14.0096 21.9968V22.7044H14.5913C14.7329 22.7044 14.8429 22.6729 14.9058 22.61C14.9687 22.5471 15.0002 22.4685 15.0002 22.3742C15.0002 22.1226 14.8272 21.9968 14.497 21.9968H14.0096Z" fill="url(#paint5_linear_107_1715)"/>
<path d="M18.1134 20.7075V23.0975H17.6731V21.1163H16.8083V21.3836C16.8083 21.6666 16.8083 21.9025 16.7926 22.0912C16.7769 22.2798 16.7454 22.4371 16.714 22.5786C16.6825 22.7201 16.6354 22.8144 16.5568 22.893C16.4939 22.9717 16.4153 23.0188 16.3209 23.0503C16.2266 23.0817 16.1165 23.0975 15.9907 23.0975H15.9121V22.6886H15.975C16.0536 22.6729 16.1008 22.6572 16.148 22.6415C16.1951 22.6258 16.2266 22.5943 16.258 22.5314C16.2895 22.4842 16.3209 22.4056 16.3209 22.3113C16.3366 22.2012 16.3524 22.0754 16.3524 21.9339C16.3524 21.7924 16.3681 21.588 16.3681 21.3522V20.7075H18.1134Z" fill="url(#paint6_linear_107_1715)"/>
<path d="M20.6928 23.0975H18.916V20.7075H20.6141V21.1006H19.3563V21.6666H20.5041V22.044H19.3563V22.6886H20.6928V23.0975Z" fill="url(#paint7_linear_107_1715)"/>
<path d="M21.7459 23.0975H21.3057V20.7075H21.7459V21.6195H21.9818C22.1547 21.6195 22.2648 21.588 22.312 21.5409C22.3591 21.4937 22.4063 21.3836 22.422 21.2107C22.4377 21.0692 22.4692 20.9591 22.5006 20.8962C22.5321 20.8176 22.5793 20.7547 22.6264 20.7075H23.0824C23.0352 20.7547 22.9881 20.8176 22.9566 20.8805C22.9252 20.9434 22.8937 21.0063 22.8937 21.0692C22.878 21.132 22.878 21.1949 22.8623 21.2736C22.8465 21.3679 22.8308 21.4465 22.7994 21.5251C22.7679 21.588 22.7365 21.6352 22.705 21.6824C22.6579 21.7138 22.6264 21.7453 22.6107 21.761C22.5792 21.7767 22.5478 21.7924 22.5164 21.7924C22.595 21.8081 22.6579 21.8396 22.705 21.8553C22.7522 21.8868 22.7994 21.9339 22.8465 22.0125C22.8937 22.0912 22.9252 22.2012 22.9252 22.327C22.9409 22.5157 22.9723 22.6572 23.0038 22.7673C23.0352 22.8773 23.0824 22.9874 23.1453 23.0975H22.6579C22.6107 23.0188 22.5792 22.9402 22.5635 22.8616C22.5478 22.783 22.5321 22.6572 22.5006 22.4842C22.4849 22.3113 22.4377 22.2012 22.3591 22.1226C22.2805 22.044 22.1547 22.0125 21.966 22.0125H21.7145V23.0975H21.7459Z" fill="url(#paint8_linear_107_1715)"/>
<path d="M25.6295 23.0975H25.1578L25.0163 22.6258H24.12L23.9785 23.0975H23.5068L24.3087 20.7075H24.8119L25.6295 23.0975ZM24.9062 22.2327L24.576 21.132L24.2458 22.2327H24.9062Z" fill="url(#paint9_linear_107_1715)"/>
<path d="M27.7677 21.1163H27.1074V23.0975H26.6671V21.1163H26.0225V20.7075H27.7677V21.1163Z" fill="url(#paint10_linear_107_1715)"/>
<path d="M30.142 23.0975H28.3652V20.7075H30.0633V21.1006H28.8055V21.6666H29.9533V22.044H28.8055V22.6886H30.142V23.0975Z" fill="url(#paint11_linear_107_1715)"/>
<path d="M32.7051 20.7075V23.0975H32.2648V21.1163H31.4V21.3836C31.4 21.6666 31.4 21.9025 31.3843 22.0912C31.3686 22.2798 31.3371 22.4371 31.3057 22.5786C31.2742 22.7201 31.2271 22.8144 31.1485 22.893C31.0856 22.9717 31.007 23.0188 30.9126 23.0503C30.8183 23.0817 30.7082 23.0975 30.5824 23.0975H30.5195V22.6886H30.5824C30.661 22.6729 30.7082 22.6572 30.7554 22.6415C30.8026 22.6258 30.834 22.5943 30.8654 22.5314C30.8969 22.4842 30.9283 22.4056 30.9283 22.3113C30.9441 22.2012 30.9598 22.0754 30.9598 21.9339C30.9598 21.7924 30.9755 21.588 30.9755 21.3522V20.7075H32.7051Z" fill="url(#paint12_linear_107_1715)"/>
<path d="M33.5225 20.7075H33.9627V21.5723H34.5288C35.0948 21.5723 35.3778 21.8239 35.3778 22.3113C35.3778 22.8302 35.1105 23.0817 34.5759 23.0817H33.5225V20.7075ZM33.9627 21.9811V22.6886H34.4501C34.7646 22.6886 34.9218 22.5629 34.9218 22.327C34.9218 22.217 34.8904 22.1383 34.8118 22.0754C34.7332 22.0126 34.6231 21.9811 34.4973 21.9811H33.9627Z" fill="url(#paint13_linear_107_1715)"/>
<path d="M38.0033 23.0975H37.5473V22.0125H36.5253V23.0975H36.0693V20.7075H36.5253V21.6037H37.5473V20.7075H38.0033V23.0975Z" fill="url(#paint14_linear_107_1715)"/>
<path d="M39.2616 20.7076V21.5724H39.7962C40.3623 21.5724 40.6453 21.824 40.6453 22.3114C40.6453 22.8303 40.378 23.0818 39.8434 23.0818H38.8057V20.6919H39.2616V20.7076ZM39.2616 21.9812V22.6888H39.7176C40.0321 22.6888 40.1893 22.563 40.1893 22.3271C40.1893 22.2171 40.1579 22.1384 40.0793 22.0755C40.0006 22.0127 39.8906 21.9812 39.7648 21.9812H39.2616ZM41.3686 23.0976H40.9283V20.7076H41.3686V23.0976Z" fill="url(#paint15_linear_107_1715)"/>
<path d="M44.1352 20.7075V23.0975H43.695V21.5409L42.6258 22.8145V23.0975H42.1855V20.7075H42.6258V22.2484L43.695 20.9748V20.7075H44.1352ZM43.412 20.0786L43.7422 20.1415C43.7264 20.1887 43.7107 20.2201 43.695 20.2516C43.6793 20.283 43.6478 20.3302 43.6164 20.3773C43.5849 20.4245 43.522 20.456 43.4434 20.4874C43.3648 20.5189 43.2862 20.5189 43.1761 20.5189C43.0661 20.5189 42.9874 20.5031 42.9088 20.4874C42.8302 20.456 42.783 20.4245 42.7359 20.3773C42.6887 20.3302 42.673 20.283 42.6572 20.2516C42.6415 20.2201 42.6258 20.1729 42.6101 20.1415L42.9403 20.0786C42.9717 20.2044 43.0661 20.2516 43.1918 20.2516C43.239 20.2516 43.2705 20.2516 43.3019 20.2358C43.3334 20.2201 43.3648 20.2044 43.3805 20.1887C43.3962 20.173 43.412 20.1415 43.412 20.1415C43.3962 20.1258 43.412 20.0943 43.412 20.0786Z" fill="url(#paint16_linear_107_1715)"/>
<path d="M10 24.6069H10.9277C11.1792 24.6069 11.3836 24.6856 11.5409 24.8271C11.6981 24.9686 11.7767 25.1572 11.7767 25.4088C11.7767 25.6447 11.6981 25.8334 11.5566 25.9749C11.4151 26.1164 11.195 26.195 10.8962 26.195H10.4402V27.0126H10V24.6069ZM10.456 24.9843V25.8176H10.8491C11.1635 25.8176 11.3207 25.6761 11.3207 25.3931C11.3207 25.3145 11.305 25.2516 11.2893 25.2044C11.2579 25.1572 11.2421 25.1101 11.2107 25.0786C11.1792 25.0472 11.1321 25.0315 11.0849 25.0157C11.0377 25 10.9906 25 10.9434 24.9843C10.9119 24.9843 10.8648 24.9843 10.8019 24.9843H10.456Z" fill="url(#paint17_linear_107_1715)"/>
<path d="M14.2613 26.981H13.7896L13.6481 26.5093H12.7519L12.6104 26.981H12.1387L12.9406 24.5911H13.4437L14.2613 26.981ZM13.5223 26.1319L13.1921 25.0313L12.8619 26.1319H13.5223Z" fill="url(#paint18_linear_107_1715)"/>
<path d="M14.8272 24.6069H16.5411V25.0157H15.2675V25.5503H15.865C16.431 25.5503 16.714 25.7862 16.714 26.2579C16.714 26.7453 16.4467 26.9969 15.9122 26.9969H14.8115V24.6069H14.8272ZM15.2675 25.8962V26.6038H15.8021C16.1166 26.6038 16.2738 26.478 16.2738 26.2422C16.2738 26.1321 16.2423 26.0535 16.1637 25.9906C16.0851 25.9277 15.975 25.8962 15.8493 25.8962H15.2675Z" fill="url(#paint19_linear_107_1715)"/>
<path d="M17.3115 25.8018C17.3115 25.4402 17.4216 25.1414 17.626 24.9056C17.8461 24.6697 18.1134 24.5439 18.4593 24.5439C18.6952 24.5439 18.8996 24.6068 19.0725 24.7169C19.2455 24.8427 19.387 24.9842 19.4656 25.1729C19.5599 25.3616 19.5914 25.566 19.5914 25.7861C19.5914 25.8962 19.5757 26.0219 19.5599 26.132C19.5285 26.2421 19.4971 26.3521 19.4342 26.4622C19.3713 26.5722 19.3084 26.6666 19.214 26.7609C19.1354 26.8395 19.0254 26.9182 18.8839 26.9653C18.7423 27.0125 18.6008 27.0439 18.4436 27.0439C18.0977 27.0439 17.8304 26.9182 17.626 26.6823C17.4216 26.4465 17.3115 26.1477 17.3115 25.8018ZM17.7675 25.7861C17.7675 25.8804 17.7832 25.9748 17.7989 26.0691C17.8304 26.1634 17.8618 26.2578 17.909 26.3364C17.9562 26.4307 18.0348 26.4936 18.1291 26.5408C18.2235 26.588 18.3335 26.6194 18.4436 26.6194C18.6323 26.6194 18.7895 26.5408 18.931 26.3993C19.0725 26.2578 19.1354 26.0534 19.1354 25.8018C19.1354 25.6603 19.104 25.5188 19.0568 25.393C19.0096 25.2672 18.931 25.1572 18.821 25.0628C18.7109 24.9685 18.5851 24.937 18.4279 24.937C18.2235 24.937 18.0662 25.0156 17.9405 25.1572C17.8304 25.3301 17.7675 25.5345 17.7675 25.7861Z" fill="url(#paint20_linear_107_1715)"/>
<path d="M21.8556 24.9999H21.1953V26.981H20.755V24.9999H20.1104V24.5911H21.8556V24.9999Z" fill="url(#paint21_linear_107_1715)"/>
<path d="M22.3594 25.8018C22.3594 25.4402 22.4694 25.1414 22.6738 24.9056C22.894 24.6697 23.1613 24.5439 23.5072 24.5439C23.743 24.5439 23.9474 24.6068 24.1204 24.7169C24.2933 24.8427 24.4348 24.9842 24.5135 25.1729C24.6078 25.3616 24.6392 25.566 24.6392 25.7861C24.6392 25.8962 24.6235 26.0219 24.6078 26.132C24.5764 26.2421 24.5449 26.3521 24.482 26.4622C24.4191 26.5722 24.3562 26.6666 24.2619 26.7609C24.1833 26.8395 24.0732 26.9182 23.9317 26.9653C23.7902 27.0125 23.6487 27.0439 23.4915 27.0439C23.1455 27.0439 22.8782 26.9182 22.6738 26.6823C22.4537 26.4465 22.3594 26.1477 22.3594 25.8018ZM22.8154 25.7861C22.8154 25.8804 22.8311 25.9748 22.8468 26.0691C22.8782 26.1634 22.9097 26.2578 22.9569 26.3364C23.004 26.4307 23.0826 26.4936 23.177 26.5408C23.2713 26.588 23.3814 26.6194 23.4915 26.6194C23.6801 26.6194 23.8374 26.5408 23.9789 26.3993C24.1204 26.2578 24.1833 26.0534 24.1833 25.8018C24.1833 25.6603 24.1518 25.5188 24.1047 25.393C24.0575 25.2672 23.9789 25.1572 23.8688 25.0628C23.7587 24.9685 23.633 24.937 23.4757 24.937C23.2713 24.937 23.1141 25.0156 22.9883 25.1572C22.8782 25.3301 22.8154 25.5345 22.8154 25.7861Z" fill="url(#paint22_linear_107_1715)"/>
<path d="M27.39 24.6069V26.5881H27.6888V27.5H27.28V26.9969H25.5504V27.5H25.1416V26.5881C25.3146 26.5881 25.4561 26.4623 25.5347 26.2264C25.629 25.9906 25.6605 25.5975 25.6605 25.0786V24.6069H27.39ZM26.934 25.0157H26.0693V25.1887C26.0693 25.912 25.9749 26.3837 25.7863 26.5881H26.934V25.0157Z" fill="url(#paint23_linear_107_1715)"/>
<path d="M30.2047 26.981H29.733L29.5915 26.5093H28.6952L28.5537 26.981H28.082L28.8839 24.5911H29.3871L30.2047 26.981ZM29.4814 26.1319L29.1512 25.0313L28.821 26.1319H29.4814Z" fill="url(#paint24_linear_107_1715)"/>
<path d="M32.3429 24.9999H31.6826V26.981H31.2423V24.9999H30.5977V24.5911H32.3429V24.9999Z" fill="url(#paint25_linear_107_1715)"/>
<path d="M34.7172 26.981H32.9404V24.5911H34.6385V24.9841H33.3807V25.5502H34.5285V25.9275H33.3807V26.5722H34.7172V26.981Z" fill="url(#paint26_linear_107_1715)"/>
<path d="M37.296 24.6069V26.9969H36.8557V25.0157H35.991V25.283C35.991 25.5661 35.9909 25.8019 35.9752 25.9906C35.9595 26.1793 35.9281 26.3365 35.8966 26.478C35.8652 26.6195 35.818 26.7139 35.7394 26.7925C35.6765 26.8711 35.5979 26.9183 35.5035 26.9497C35.4092 26.9812 35.2991 26.9969 35.1733 26.9969H35.0947V26.5881H35.1576C35.2362 26.5723 35.2834 26.5566 35.3306 26.5409C35.3777 26.5252 35.4092 26.4937 35.4406 26.4308C35.4721 26.3837 35.5035 26.305 35.5035 26.2107C35.5193 26.1006 35.535 25.9749 35.535 25.8333C35.535 25.6918 35.5507 25.4874 35.5507 25.2516V24.6069H37.296Z" fill="url(#paint27_linear_107_1715)"/>
<path d="M38.0978 24.6069H38.538V25.4717H39.104C39.6701 25.4717 39.9531 25.7233 39.9531 26.2107C39.9531 26.7296 39.6858 26.9811 39.1512 26.9811H38.082V24.6069H38.0978ZM38.5537 25.8805V26.5881H39.0411C39.3556 26.5881 39.5128 26.4623 39.5128 26.2264C39.5128 26.1164 39.4814 26.0378 39.4028 25.9749C39.3242 25.912 39.2141 25.8805 39.0883 25.8805H38.5537Z" fill="url(#paint28_linear_107_1715)"/>
</g>
<g opacity="0.84">
<path d="M28.1289 31.4623V32.0126C28.2547 31.8082 28.4277 31.6509 28.6321 31.5409C28.8365 31.4308 29.0723 31.3679 29.3082 31.3679H29.3711V32.3113C29.1824 32.3113 28.4277 32.3113 28.1604 33.0189C28.0975 33.2075 28.0975 33.4434 28.0975 33.6635V35.3931H27.1855V31.4465H28.1289V31.4623Z" fill="url(#paint29_linear_107_1715)"/>
<path d="M17.9406 35.4245V31.4465H16.9972V33.2704C17.0286 33.5849 16.9657 33.9151 16.8399 34.2138C16.7613 34.3553 16.6513 34.4654 16.5097 34.544C16.3682 34.6226 16.211 34.6698 16.0538 34.6698C15.3777 34.6698 15.2676 34.2138 15.2676 33.7893V31.4465H14.3242V33.8207C14.3242 34.4968 14.4186 34.7956 14.6544 35.0943C14.7802 35.2358 14.9374 35.3459 15.1261 35.4245C15.2991 35.5031 15.5035 35.5346 15.6921 35.5189C16.1481 35.5189 16.5884 35.3616 16.9657 35.0943V35.4245H17.9406Z" fill="url(#paint30_linear_107_1715)"/>
<path d="M13.8678 30.9119C13.4118 30.1729 12.5627 29.7012 11.6822 29.7012C10.2829 29.7012 9.55958 30.4873 9.55958 31.3993C9.55958 32.3112 10.0785 32.7358 11.0847 33.0031L11.7923 33.1917C12.4998 33.3804 12.83 33.5534 12.83 33.8993C12.83 34.4181 12.2483 34.6068 11.7923 34.6068C11.4778 34.6225 11.1791 34.5439 10.8961 34.4024C10.6288 34.2609 10.3929 34.0565 10.22 33.7892L9.24512 34.2452C9.48097 34.654 9.82689 34.9842 10.2357 35.22C10.6445 35.4559 11.1162 35.5659 11.5879 35.5502C12.5942 35.5502 13.8992 35.1257 13.8992 33.7578C13.8992 32.6886 13.0502 32.327 12.1697 32.1225L11.5879 31.9653C11.0061 31.8395 10.6445 31.6509 10.6445 31.2892C10.6445 30.7075 11.3835 30.6446 11.6193 30.6446C12.1697 30.6131 12.6885 30.9433 12.9558 31.4622L13.8678 30.9119Z" fill="url(#paint31_linear_107_1715)"/>
<path d="M30.2675 29.8269V33.5061C30.2675 34.0879 30.2361 34.5439 29.4185 34.5439C29.2298 34.5439 29.0568 34.5124 28.8682 34.481V35.4558C29.0883 35.503 29.3084 35.5187 29.5128 35.5187C31.1166 35.5187 31.2738 34.5753 31.2738 33.7263V29.8269H30.2675Z" fill="url(#paint32_linear_107_1715)"/>
<path d="M21.9026 31.9182C21.7453 31.7295 21.5724 31.588 21.3523 31.4937C21.1321 31.3993 20.8963 31.3364 20.6762 31.3364C20.4718 31.3364 20.2516 31.3836 20.063 31.4622C19.8743 31.5408 19.7013 31.6666 19.5598 31.8239V31.4622H18.585V36.6981H19.5284V35.0628C19.8114 35.3459 20.2045 35.5188 20.5975 35.5188C21.1479 35.5188 21.6982 35.2515 21.9969 34.7798C22.2485 34.3867 22.39 33.915 22.39 33.4433C22.4529 32.893 22.2642 32.3427 21.9026 31.9182ZM20.5032 34.6226C19.9529 34.6226 19.5598 34.1352 19.5598 33.4433C19.5598 32.7358 19.9529 32.2327 20.5032 32.2327C21.0535 32.2327 21.4466 32.7201 21.4466 33.4433C21.4466 34.1666 21.1007 34.6226 20.5032 34.6226Z" fill="url(#paint33_linear_107_1715)"/>
<path d="M38.8518 31.3365C38.4273 31.3365 38.0342 31.4937 37.7198 31.7925V29.8428H36.7764V35.4403H37.7198V35.0472C38.0185 35.3459 38.4273 35.5346 38.8518 35.5031C39.7009 35.5031 40.5814 34.8271 40.5814 33.412C40.5657 32.1384 39.7638 31.3365 38.8518 31.3365ZM38.6789 34.6541C38.1286 34.6541 37.7355 34.1352 37.7355 33.4434C37.7355 32.7359 38.1286 32.2327 38.6789 32.2327C39.2292 32.2327 39.6223 32.7201 39.6223 33.4434C39.6223 34.1352 39.2449 34.6541 38.6789 34.6541Z" fill="url(#paint34_linear_107_1715)"/>
<path d="M24.8108 34.6854C24.6693 34.7011 24.5278 34.6697 24.402 34.6225C24.2762 34.5753 24.1504 34.4967 24.0561 34.4024C23.9618 34.308 23.8674 34.198 23.8203 34.0722C23.7574 33.9464 23.7416 33.8049 23.7416 33.6634H26.6662C26.6662 32.5627 26.2416 31.3521 24.7165 31.3521C23.6473 31.3521 22.7354 32.2325 22.7354 33.3017V33.4275C22.7354 34.7954 23.6473 35.5502 24.685 35.5502C25.0781 35.5659 25.4712 35.4715 25.8171 35.2829C26.163 35.0942 26.446 34.8112 26.6504 34.4653L25.8328 34.0722C25.6284 34.4181 25.2353 34.6854 24.8108 34.6854ZM24.7479 32.1382C25.2039 32.1382 25.6284 32.4998 25.6599 32.9558H23.7731C23.836 32.4684 24.2605 32.1382 24.7479 32.1382Z" fill="url(#paint35_linear_107_1715)"/>
<path d="M35.1096 31.3678C34.6536 31.3992 34.2291 31.7766 34.009 31.9653C33.7888 31.7609 33.3643 31.3992 32.9083 31.3678C32.0907 31.3049 31.6348 31.8395 31.6348 32.6728C31.6348 33.3489 32.2165 33.915 32.8297 34.5439C33.3643 35.0942 34.0247 35.7389 34.0247 35.7389C34.0247 35.7389 34.6694 35.0942 35.2197 34.5439C35.8329 33.915 36.4146 33.3332 36.4146 32.6728C36.3832 31.8395 35.9272 31.3049 35.1096 31.3678Z" fill="url(#paint36_linear_107_1715)"/>
</g>
<g opacity="0.51">
<path d="M29.2761 31.368H29.2918H29.3547V32.3114C29.166 32.3114 28.4113 32.3114 28.144 33.0189C28.0811 33.2076 28.0811 33.4434 28.0811 33.6636V35.3931H27.1691V31.4466H28.1125V31.9969C28.2383 31.7925 28.4113 31.6353 28.6157 31.5252C28.8201 31.4309 29.0402 31.368 29.2761 31.368ZM29.2761 31.1636C29.0088 31.1636 28.7572 31.2265 28.5213 31.368C28.4585 31.3994 28.3956 31.4466 28.3327 31.4938V31.478V31.2736H28.1283H27.1849H26.9805V31.478V35.4246V35.629H27.1849H28.0968H28.3012V35.4246V33.695C28.3012 33.4906 28.3012 33.2705 28.3484 33.1133C28.4899 32.7359 28.8201 32.5472 29.3547 32.5472H29.5591V32.3428V31.3994V31.195H29.3547H29.2918L29.2761 31.1636Z" fill="url(#paint37_linear_107_1715)"/>
<path d="M17.9398 31.4623V35.4403H16.965V35.1101C16.6033 35.3774 16.1473 35.5346 15.6914 35.5346C15.6599 35.5346 15.6442 35.5346 15.6127 35.5346C15.4398 35.5346 15.2826 35.5032 15.1253 35.4403C14.9367 35.3617 14.7794 35.2516 14.6536 35.1101C14.4335 34.8114 14.3234 34.5284 14.3234 33.8365V31.4623H15.2668V33.8051C15.2668 34.2296 15.3612 34.6856 16.053 34.6856H16.0687C16.226 34.6856 16.3675 34.6384 16.509 34.5598C16.6505 34.4812 16.7606 34.3554 16.8392 34.2296C16.9807 33.9309 17.0278 33.6007 16.9964 33.2862V31.4623H17.9398ZM18.1442 31.2422H17.9398H16.9964H16.792V31.4466V33.2705V33.2862V33.3019C16.8234 33.585 16.7606 33.868 16.6505 34.1353C16.5876 34.2296 16.509 34.3239 16.3989 34.3868C16.3046 34.4497 16.1945 34.4812 16.0844 34.4812H16.0687C15.6442 34.4812 15.487 34.3082 15.487 33.8208V31.478V31.2736H15.2826H14.3392H14.1348V31.478V33.8522C14.1348 34.5441 14.2291 34.89 14.5121 35.2516C14.6694 35.4246 14.8423 35.5504 15.0624 35.6447C15.2354 35.7233 15.4398 35.7548 15.6285 35.7548C15.6599 35.7548 15.6914 35.7548 15.7228 35.7548C16.0844 35.7548 16.4461 35.6604 16.7763 35.5032V35.6604H16.9807H17.9555H18.1599V35.456V31.478V31.2422H18.1442Z" fill="url(#paint38_linear_107_1715)"/>
<path d="M11.6977 29.7012C12.5782 29.7012 13.4272 30.1572 13.8832 30.9119L13.0027 31.4622C12.7511 30.9591 12.2637 30.6446 11.7448 30.6446C11.7134 30.6446 11.6977 30.6446 11.6662 30.6446C11.4304 30.6446 10.6914 30.7075 10.6914 31.2893C10.6914 31.6509 11.053 31.8396 11.6348 31.9654L12.2165 32.1226C13.097 32.3113 13.9461 32.6729 13.9461 33.7578C13.9461 35.1258 12.6411 35.5503 11.6348 35.5503C11.6033 35.5503 11.5719 35.5503 11.5404 35.5503C11.1002 35.5503 10.6599 35.4402 10.2826 35.2201C9.87376 34.9843 9.52785 34.6541 9.292 34.2453L10.2668 33.7893C10.4398 34.0566 10.6599 34.261 10.9429 34.4025C11.1945 34.5283 11.4775 34.6069 11.7606 34.6069C11.7763 34.6069 11.8077 34.6069 11.8234 34.6069C12.2794 34.6069 12.8612 34.4182 12.8612 33.8993C12.8612 33.5377 12.531 33.3805 11.8234 33.1918L11.1159 33.0031C10.1096 32.7358 9.59074 32.3113 9.59074 31.3993C9.59074 30.4874 10.2826 29.7012 11.6977 29.7012ZM11.6977 29.4968C10.0939 29.4968 9.37062 30.456 9.37062 31.3993C9.37062 32.5943 10.2197 32.9874 11.053 33.2075L11.7606 33.3962C12.4995 33.6006 12.6411 33.7264 12.6411 33.9151C12.6411 34.3082 12.1065 34.4182 11.8077 34.4182C11.792 34.4182 11.7606 34.4182 11.7448 34.4182C11.4933 34.4182 11.2417 34.3553 11.0216 34.2453C10.7857 34.1195 10.5813 33.9308 10.4241 33.7107L10.3297 33.5534L10.1568 33.6321L9.18194 34.088L8.97754 34.1824L9.08759 34.3868C9.33917 34.827 9.71653 35.1887 10.1568 35.4402C10.5656 35.6761 11.0373 35.8019 11.5247 35.8019C11.5561 35.8019 11.5876 35.8019 11.619 35.8019C11.9807 35.8019 12.6725 35.7547 13.2543 35.3931C13.836 35.0471 14.1348 34.4968 14.1348 33.805C14.1348 32.5314 13.0656 32.1541 12.248 31.9654L11.6662 31.8081C10.9744 31.6509 10.8958 31.4622 10.8958 31.3365C10.8958 31.2264 10.9272 31.0849 11.1631 30.9905C11.3203 30.9276 11.5247 30.8962 11.6505 30.8962C11.6662 30.8962 11.6977 30.8962 11.7134 30.8962C12.1536 30.8962 12.5624 31.1635 12.7826 31.6037L12.8926 31.8081L13.097 31.6824L13.9775 31.1321L14.1505 31.022L14.0404 30.849C13.553 29.9843 12.6568 29.4968 11.6977 29.4968Z" fill="url(#paint39_linear_107_1715)"/>
<path d="M31.2889 29.827V33.7263C31.2889 34.5754 31.1316 35.5188 29.5279 35.5188C29.3077 35.5188 29.0876 35.4873 28.8832 35.4559V34.481C29.0719 34.5125 29.2449 34.5439 29.4335 34.5439C30.2511 34.5439 30.2826 34.088 30.2826 33.5062V29.827H31.2889ZM31.4933 29.6226H31.2889H30.2826H30.0625V29.827V33.5062C30.0625 34.1351 30.0153 34.3395 29.4335 34.3395C29.2763 34.3395 29.1505 34.3238 28.9933 34.2924L28.9147 34.2766L28.6631 34.2295V34.481V35.4559V35.6288L28.836 35.6603C29.0562 35.7075 29.2763 35.7232 29.5279 35.7232C31.2731 35.7232 31.509 34.654 31.509 33.7263V29.827V29.6226H31.4933Z" fill="url(#paint40_linear_107_1715)"/>
<path d="M20.644 31.3363C20.6598 31.3363 20.6598 31.3363 20.6755 31.3363C20.9113 31.3363 21.1472 31.3992 21.3516 31.4936C21.556 31.5879 21.7604 31.7451 21.9019 31.9181C22.2635 32.3426 22.4522 32.8929 22.3893 33.4433C22.3893 33.915 22.2478 34.3866 21.9962 34.7797C21.7132 35.2672 21.1472 35.5187 20.5969 35.5187C20.1881 35.5187 19.8107 35.3458 19.5277 35.0627V36.698H18.5843V31.4621H19.5591V31.8238C19.7006 31.6665 19.8736 31.5407 20.0623 31.4621C20.251 31.3678 20.4396 31.3363 20.644 31.3363ZM20.5182 34.6225C21.1 34.6225 21.4616 34.1665 21.4616 33.4433C21.4616 32.7357 21.0686 32.2326 20.5182 32.2326C19.9679 32.2326 19.5748 32.72 19.5748 33.4433C19.5591 34.1194 19.9522 34.6225 20.5182 34.6225ZM20.644 31.1162C20.4239 31.1162 20.1881 31.1634 19.9837 31.2577C19.905 31.2892 19.8421 31.3206 19.7792 31.3678V31.2577H19.5748H18.5843H18.3799V31.4621V36.698V36.9024H18.5843H19.5277H19.7321V36.698V35.503C19.9837 35.6602 20.2824 35.7388 20.5969 35.7388C21.2572 35.7388 21.8705 35.4087 22.1849 34.8898C22.4522 34.4653 22.6094 33.9621 22.6094 33.459C22.6723 32.8772 22.4837 32.264 22.0749 31.7766C21.9019 31.5722 21.6975 31.3992 21.4459 31.2892C21.1943 31.1791 20.927 31.1162 20.6755 31.1162H20.644ZM20.5182 34.6225V34.4181C20.078 34.4181 19.7792 34.025 19.7792 33.459C19.7792 32.8615 20.078 32.4684 20.5182 32.4684C20.9585 32.4684 21.2572 32.8615 21.2572 33.459C21.2572 34.0565 20.9899 34.4181 20.534 34.4181V34.6225H20.5182Z" fill="url(#paint41_linear_107_1715)"/>
<path d="M37.7043 29.827V31.7766C38.0345 31.4779 38.4119 31.3207 38.8364 31.3207C39.7484 31.3207 40.566 32.1383 40.566 33.4119C40.566 34.8112 39.6855 35.5031 38.8364 35.5031C38.805 35.5031 38.7735 35.5031 38.7421 35.5031C38.349 35.5031 37.9716 35.3144 37.6886 35.0471V35.4402H36.7452V29.8427H37.7043M38.6792 34.654C39.2295 34.654 39.6226 34.1351 39.6226 33.4433C39.6226 32.7358 39.2452 32.2326 38.6792 32.2326C38.1131 32.2326 37.7358 32.72 37.7358 33.4433C37.7358 34.1351 38.1289 34.654 38.6792 34.654ZM37.9245 29.6226H37.7201H36.7767H36.5723V29.827V35.4244V35.6288H36.7767H37.7201H37.9245V35.4559C38.1918 35.6131 38.4748 35.6917 38.7578 35.6917C38.7892 35.6917 38.8207 35.6917 38.8521 35.6917C39.3553 35.6917 39.827 35.4716 40.1729 35.11C40.566 34.6854 40.7704 34.1037 40.7704 33.3961C40.7704 31.9024 39.7798 31.1005 38.8364 31.1005C38.5062 31.1005 38.1918 31.1792 37.9087 31.3521V29.8112V29.6226H37.9245ZM38.6792 34.4339C38.2546 34.4339 37.9402 34.0093 37.9402 33.4433C37.9402 32.8458 38.2389 32.4527 38.6792 32.4527C39.1194 32.4527 39.4025 32.8458 39.4025 33.4433C39.4182 34.0251 39.1037 34.4339 38.6792 34.4339Z" fill="url(#paint42_linear_107_1715)"/>
<path d="M24.7169 31.3678C26.242 31.3678 26.6666 32.5785 26.6666 33.6792H23.742C23.742 33.8207 23.7735 33.9464 23.8207 34.088C23.8678 34.2137 23.9622 34.3238 24.0565 34.4182C24.1508 34.5125 24.2766 34.5911 24.4024 34.6383C24.5125 34.6697 24.6225 34.7012 24.7483 34.7012C24.7641 34.7012 24.7955 34.7012 24.8112 34.7012C25.2357 34.7012 25.6288 34.4339 25.8175 34.1194L26.6351 34.5125C26.4464 34.8584 26.1477 35.1257 25.8018 35.3301C25.4873 35.5031 25.1257 35.5974 24.7641 35.5974C24.7326 35.5974 24.7012 35.5974 24.6697 35.5974C23.632 35.5974 22.72 34.8427 22.72 33.4748V33.349C22.7357 32.2483 23.6477 31.3678 24.7169 31.3678ZM23.7735 32.9559H25.6603C25.6288 32.4999 25.2043 32.1383 24.7483 32.1383C24.2609 32.1383 23.8364 32.4685 23.7735 32.9559ZM24.7169 31.1477C23.5219 31.1477 22.5156 32.1383 22.5156 33.3175V33.4433C22.5156 35.0471 23.632 35.7704 24.6697 35.7704C24.7012 35.7704 24.7326 35.7704 24.7641 35.7704C25.1571 35.7704 25.5502 35.676 25.9118 35.4873C26.2892 35.2829 26.6037 34.9685 26.8238 34.5911L26.9339 34.3867L26.7295 34.2924L25.9118 33.8993L25.849 33.8678H26.6666H26.871V33.6634C26.8867 32.0754 26.1005 31.1477 24.7169 31.1477ZM24.0565 32.7515C24.1823 32.5156 24.4339 32.3584 24.7483 32.3584C25.0156 32.3584 25.2672 32.5156 25.3773 32.7515H24.0565ZM23.9779 33.8836H25.7074L25.6446 33.9936C25.4873 34.2295 25.1729 34.481 24.8112 34.481C24.7955 34.481 24.7798 34.481 24.7641 34.481C24.6697 34.481 24.5754 34.4653 24.481 34.4339C24.371 34.4024 24.2924 34.3395 24.2137 34.2609C24.1351 34.1823 24.0722 34.088 24.0251 33.9936C24.0093 33.9622 23.9936 33.915 23.9779 33.8836Z" fill="url(#paint43_linear_107_1715)"/>
<path d="M35.2357 31.3521C35.9747 31.3521 36.3835 31.871 36.3835 32.6571C36.3835 33.3175 35.8175 33.8993 35.1885 34.5282C34.6539 35.0785 33.9936 35.7232 33.9936 35.7232C33.9936 35.7232 33.3489 35.0785 32.7986 34.5282C32.1854 33.8993 31.6036 33.3332 31.6036 32.6571C31.6036 31.8553 32.0124 31.3521 32.7514 31.3521C32.7986 31.3521 32.83 31.3521 32.8772 31.3521C33.3489 31.3836 33.7577 31.7609 33.9778 31.9496C34.2137 31.7452 34.6225 31.3836 35.0785 31.3521C35.1571 31.3678 35.1885 31.3521 35.2357 31.3521ZM35.2357 31.1477C35.1885 31.1477 35.1414 31.1477 35.0942 31.1477C34.6539 31.1792 34.2608 31.4622 34.0093 31.6823C33.7577 31.4622 33.3646 31.1792 32.9244 31.1477C32.8772 31.1477 32.83 31.1477 32.7829 31.1477C32.3583 31.1477 32.0124 31.2892 31.7766 31.5722C31.5407 31.8395 31.4307 32.2169 31.4307 32.6571C31.4307 33.3961 32.0124 33.9936 32.6256 34.6226L32.6728 34.6697C33.2074 35.22 33.852 35.8647 33.8678 35.8647L34.0093 36.0062L34.1508 35.8647C34.1508 35.8647 34.8112 35.22 35.3458 34.6697L35.3615 34.654C35.9904 34.0093 36.5879 33.3961 36.5879 32.6571C36.5879 32.1697 36.4464 31.7766 36.1791 31.4936C35.9432 31.2735 35.6131 31.1477 35.2357 31.1477Z" fill="url(#paint44_linear_107_1715)"/>
</g>
<g opacity="0.84">
<path d="M17.248 42.4843V41.7768C17.9241 41.2894 18.4902 40.8019 18.9462 40.2831C19.2921 39.89 19.465 39.4969 19.465 39.0881C19.465 38.8837 19.4021 38.695 19.2921 38.5692C19.182 38.4277 19.0248 38.3648 18.8204 38.3648C18.6631 38.3648 18.5374 38.3963 18.443 38.4592C18.3487 38.5221 18.2701 38.6164 18.2386 38.7422C18.2072 38.868 18.1757 38.978 18.16 39.0567C18.1443 39.151 18.1443 39.2611 18.1443 39.3868V39.4812L17.248 39.4026V39.3711C17.248 38.868 17.3581 38.4592 17.594 38.1447C17.704 37.9875 17.877 37.846 18.0971 37.7202C18.3172 37.5944 18.5845 37.5315 18.9147 37.5315C19.355 37.5315 19.7323 37.6573 20.0153 37.9246C20.3141 38.1919 20.4713 38.5692 20.4713 39.0567C20.4713 39.3397 20.4084 39.607 20.2826 39.8585C20.2355 39.9529 20.1726 40.0472 20.1097 40.1573C20.0468 40.2516 19.9839 40.346 19.9367 40.4089C19.8896 40.4717 19.8109 40.5661 19.6852 40.6604C19.5594 40.7548 19.4965 40.8334 19.465 40.8648C19.4336 40.8963 19.3392 40.9749 19.1977 41.1007C19.0562 41.2265 18.9619 41.2894 18.9619 41.3051C18.7103 41.5095 18.5374 41.651 18.443 41.7139H20.5814V42.4686H17.248V42.4843Z" fill="url(#paint45_linear_107_1715)"/>
<path d="M24.6854 40.0315C24.6854 40.4088 24.6539 40.7548 24.5753 41.0535C24.5124 41.3522 24.4181 41.5881 24.2923 41.7768C24.1823 41.9655 24.0407 42.107 23.8835 42.2327C23.7263 42.3428 23.569 42.4372 23.4118 42.4843C23.2546 42.5315 23.0816 42.5472 22.8929 42.5472C22.6257 42.5472 22.3898 42.5 22.1697 42.4214C21.9653 42.3428 21.7923 42.217 21.6665 42.0598C21.5407 41.9026 21.4464 41.7453 21.3678 41.5881C21.2892 41.4309 21.2263 41.2422 21.1948 41.0221C21.1634 40.8019 21.1319 40.629 21.1319 40.4875C21.1162 40.346 21.1162 40.1887 21.1162 40.0158C21.1162 39.1667 21.2734 38.5378 21.6036 38.129C21.9338 37.7202 22.3741 37.5315 22.9244 37.5315C23.1602 37.5315 23.3804 37.5787 23.5848 37.6573C23.7892 37.7516 23.9778 37.8774 24.1351 38.0661C24.308 38.2548 24.4338 38.5063 24.5282 38.8365C24.6382 39.1982 24.6854 39.5755 24.6854 40.0315ZM22.0596 40.0787C22.0596 40.2045 22.0596 40.3145 22.0596 40.3931C22.0596 40.4717 22.0753 40.5975 22.0911 40.739C22.1068 40.8963 22.1382 41.0221 22.1697 41.1164C22.2011 41.2107 22.2483 41.3208 22.3112 41.4309C22.3741 41.5409 22.4527 41.6195 22.547 41.6667C22.6414 41.7139 22.7672 41.7453 22.9087 41.7453C23.2231 41.7453 23.4433 41.6038 23.569 41.3208C23.6791 41.0378 23.742 40.6133 23.742 40.0472C23.742 39.9057 23.742 39.7799 23.742 39.6699C23.742 39.5755 23.7263 39.4497 23.7106 39.2925C23.6948 39.151 23.6634 39.0252 23.6319 38.9151C23.6005 38.8208 23.5533 38.7107 23.4904 38.6164C23.4275 38.5221 23.3646 38.4434 23.2546 38.3963C23.1602 38.3491 23.0502 38.3177 22.9244 38.3177C22.7514 38.3177 22.6099 38.3648 22.4841 38.4592C22.3584 38.5535 22.2797 38.6793 22.2168 38.8522C22.1539 39.0252 22.1225 39.2139 22.0911 39.4026C22.0596 39.5912 22.0596 39.8271 22.0596 40.0787Z" fill="url(#paint46_linear_107_1715)"/>
<path d="M25.3301 42.4843V41.7768C26.0062 41.2894 26.5722 40.8019 27.0282 40.2831C27.3741 39.89 27.5471 39.4969 27.5471 39.0881C27.5471 38.8837 27.4842 38.695 27.3741 38.5692C27.264 38.4277 27.1068 38.3648 26.9024 38.3648C26.7452 38.3648 26.6194 38.3963 26.525 38.4592C26.4307 38.5221 26.3521 38.6164 26.3206 38.7422C26.2892 38.868 26.2577 38.978 26.242 39.0567C26.2263 39.151 26.2263 39.2611 26.2263 39.3868V39.4812L25.3301 39.4026V39.3711C25.3301 38.868 25.4401 38.4592 25.676 38.1447C25.786 37.9875 25.959 37.846 26.1791 37.7202C26.3993 37.5944 26.6666 37.5315 26.9967 37.5315C27.437 37.5315 27.8144 37.6573 28.0974 37.9246C28.3961 38.1919 28.5533 38.5692 28.5533 39.0567C28.5533 39.3397 28.4905 39.607 28.3647 39.8585C28.3175 39.9529 28.2546 40.0472 28.1917 40.1573C28.1288 40.2516 28.0659 40.346 28.0188 40.4089C27.9716 40.4717 27.893 40.5661 27.7672 40.6604C27.6414 40.7548 27.5785 40.8334 27.5471 40.8648C27.5156 40.8963 27.4213 40.9749 27.2798 41.1007C27.1382 41.2265 27.0439 41.2894 27.0439 41.3051C26.7923 41.5095 26.6194 41.651 26.525 41.7139H28.6477V42.4686H25.3301V42.4843Z" fill="url(#paint47_linear_107_1715)"/>
<path d="M29.3867 42.4843V41.7768C30.0628 41.2894 30.6289 40.8019 31.0848 40.2831C31.4307 39.89 31.6037 39.4969 31.6037 39.0881C31.6037 38.8837 31.5408 38.695 31.4307 38.5692C31.3207 38.4277 31.1634 38.3648 30.959 38.3648C30.8018 38.3648 30.676 38.3963 30.5817 38.4592C30.4873 38.5221 30.4087 38.6164 30.3773 38.7422C30.3458 38.868 30.3144 38.978 30.2987 39.0567C30.2829 39.151 30.2829 39.2611 30.2829 39.3868V39.4812L29.3867 39.4026V39.3711C29.3867 38.868 29.4968 38.4592 29.7326 38.1447C29.8427 37.9875 30.0156 37.846 30.2358 37.7202C30.4559 37.5944 30.7232 37.5315 31.0534 37.5315C31.4936 37.5315 31.871 37.6573 32.154 37.9246C32.4528 38.1919 32.61 38.5692 32.61 39.0567C32.61 39.3397 32.5471 39.607 32.4213 39.8585C32.3741 39.9529 32.3112 40.0472 32.2484 40.1573C32.1855 40.2516 32.1226 40.346 32.0754 40.4089C32.0282 40.4717 31.9496 40.5661 31.8238 40.6604C31.7138 40.7705 31.6351 40.8334 31.6037 40.8648C31.5722 40.8963 31.4779 40.9749 31.3364 41.1007C31.1949 41.2265 31.1005 41.2894 31.1005 41.3051C30.849 41.5095 30.676 41.651 30.5817 41.7139H32.7201V42.4686H29.3867V42.4843Z" fill="url(#paint48_linear_107_1715)"/>
</g>
<g opacity="0.4">
<path d="M18.8991 37.5315C19.3393 37.5315 19.7167 37.6573 19.9997 37.9246C20.2985 38.1919 20.4557 38.5693 20.4557 39.0567C20.4557 39.3397 20.3928 39.607 20.267 39.8586C20.2198 39.9529 20.1569 40.0473 20.0941 40.1573C20.0312 40.2517 19.9683 40.346 19.9211 40.4089C19.8739 40.4718 19.7953 40.5661 19.6695 40.6605C19.5437 40.7548 19.4809 40.8334 19.4494 40.8649C19.418 40.8963 19.3236 40.9749 19.1821 41.1007C19.0406 41.2265 18.9463 41.2894 18.9463 41.3051C18.6947 41.5095 18.5217 41.651 18.4274 41.7139H20.5658V42.4686H17.2639V41.7611C17.94 41.2737 18.506 40.7863 18.962 40.2674C19.3079 39.8743 19.4809 39.4812 19.4809 39.0724C19.4809 38.868 19.418 38.6793 19.3079 38.5536C19.1978 38.412 19.0406 38.3492 18.8362 38.3492C18.679 38.3492 18.5532 38.3806 18.4588 38.4435C18.3645 38.5064 18.2859 38.6007 18.2544 38.7265C18.223 38.8523 18.1915 38.9624 18.1758 39.041C18.1601 39.1353 18.1601 39.2454 18.1601 39.3712V39.4655L17.2639 39.3869V39.3554C17.2639 38.8523 17.3739 38.4435 17.6098 38.129C17.7198 37.9718 17.8928 37.8303 18.1129 37.7045C18.3016 37.5944 18.5846 37.5315 18.8991 37.5315ZM18.8991 37.4058C18.5532 37.4058 18.2544 37.4687 18.0029 37.6102C17.767 37.7517 17.5783 37.9089 17.4683 38.0661C17.2167 38.3963 17.0909 38.8366 17.0909 39.3712V39.4026V39.5284L17.2167 39.5441L18.1129 39.6227L18.2544 39.6385V39.4812V39.3869C18.2544 39.2611 18.2544 39.151 18.2702 39.0724C18.2859 38.9938 18.3016 38.8837 18.3331 38.7737C18.3645 38.6793 18.4117 38.6164 18.4903 38.5693C18.5689 38.5221 18.6632 38.4907 18.789 38.4907C18.9463 38.4907 19.072 38.5378 19.1664 38.6479C19.2607 38.758 19.3079 38.8995 19.3079 39.0881C19.3079 39.4498 19.1349 39.8271 18.8205 40.1888C18.3645 40.6919 17.7985 41.1951 17.1381 41.6668L17.0752 41.7139V41.7768V42.4844V42.6259H17.2167H20.5186H20.6601V42.4844V41.7297V41.5881H20.5186H18.789C18.8519 41.541 18.9148 41.4781 18.9934 41.4152C18.9934 41.4152 19.0249 41.3837 19.2293 41.2265C19.3708 41.1007 19.4651 41.0221 19.5123 40.9907C19.5437 40.9592 19.6224 40.8963 19.7324 40.7863C19.8582 40.6762 19.9368 40.5819 19.9997 40.519C20.0469 40.4561 20.1098 40.3775 20.1884 40.2674C20.267 40.1573 20.3299 40.063 20.3771 39.9529C20.5186 39.6699 20.5815 39.3869 20.5815 39.0881C20.5815 38.5693 20.4085 38.1447 20.0783 37.8617C19.7796 37.5473 19.3865 37.4058 18.8991 37.4058Z" fill="url(#paint49_linear_107_1715)"/>
<path d="M22.9399 37.5315C23.1758 37.5315 23.3959 37.5787 23.6003 37.6573C23.8047 37.7517 23.9934 37.8775 24.1506 38.0661C24.3236 38.2548 24.4494 38.5064 24.5437 38.8366C24.638 39.1668 24.6852 39.5598 24.6852 40.0001C24.6852 40.3775 24.6538 40.7234 24.5751 41.0221C24.5122 41.3209 24.4179 41.5567 24.2921 41.7454C24.1821 41.9341 24.0406 42.0756 23.8833 42.2014C23.7261 42.3114 23.5689 42.4058 23.4116 42.4529C23.2544 42.5001 23.0814 42.5158 22.8928 42.5158C22.6255 42.5158 22.3896 42.4686 22.1695 42.39C21.9651 42.3114 21.7921 42.1856 21.6663 42.0284C21.5405 41.8712 21.4462 41.7139 21.3676 41.5567C21.289 41.3995 21.2261 41.2108 21.1946 40.9907C21.1632 40.7705 21.1317 40.5976 21.1317 40.4561C21.116 40.3146 21.116 40.1573 21.116 39.9844C21.116 39.1353 21.2733 38.5064 21.6034 38.0976C21.9494 37.7359 22.3896 37.5315 22.9399 37.5315ZM22.9242 41.7454C23.2387 41.7454 23.4588 41.6039 23.5846 41.3209C23.6946 41.0378 23.7575 40.6133 23.7575 40.0473C23.7575 39.9058 23.7575 39.78 23.7575 39.6699C23.7575 39.5756 23.7418 39.4498 23.7261 39.2926C23.7104 39.151 23.6789 39.0253 23.6475 38.9152C23.616 38.8209 23.5689 38.7108 23.506 38.6164C23.4431 38.5221 23.3802 38.4435 23.2701 38.3963C23.1758 38.3492 23.0657 38.3177 22.9399 38.3177C22.767 38.3177 22.6255 38.3649 22.4997 38.4592C22.3739 38.5536 22.2953 38.6793 22.2324 38.8523C22.1695 39.0253 22.138 39.2139 22.1066 39.4026C22.0751 39.5913 22.0751 39.8114 22.0751 40.063C22.0751 40.1888 22.0751 40.2988 22.0751 40.3775C22.0751 40.4561 22.0909 40.5819 22.1066 40.7234C22.1223 40.8806 22.1538 41.0064 22.1852 41.1007C22.2167 41.1951 22.2638 41.3051 22.3267 41.4152C22.3896 41.5253 22.4682 41.6039 22.5626 41.651C22.6569 41.6982 22.7827 41.7454 22.9242 41.7454ZM22.9399 37.4058C22.3424 37.4058 21.855 37.6259 21.5091 38.0661C21.1632 38.4907 20.9902 39.151 20.9902 40.0315C20.9902 40.2045 20.9902 40.3617 21.006 40.5032C21.0217 40.6447 21.0374 40.8334 21.0689 41.0536C21.1003 41.2894 21.1632 41.4781 21.2575 41.651C21.3361 41.824 21.4462 41.9812 21.572 42.1542C21.7135 42.3271 21.9022 42.4529 22.1223 42.5473C22.3424 42.6416 22.6097 42.6888 22.8928 42.6888C23.0814 42.6888 23.2701 42.6573 23.4431 42.6102C23.616 42.563 23.789 42.4686 23.9619 42.3429C24.1349 42.2171 24.2764 42.0598 24.4022 41.8554C24.528 41.6668 24.6223 41.3995 24.7009 41.085C24.7795 40.7705 24.811 40.4246 24.811 40.0315C24.811 39.5756 24.7638 39.1668 24.6695 38.8209C24.5751 38.4749 24.4336 38.1919 24.245 37.9875C24.072 37.7831 23.8676 37.6416 23.6475 37.5315C23.4431 37.4529 23.2072 37.4058 22.9399 37.4058ZM22.9242 41.6039C22.8141 41.6039 22.7198 41.5881 22.6255 41.541C22.5468 41.4938 22.4839 41.4466 22.4368 41.3523C22.3896 41.258 22.3424 41.1479 22.2953 41.0536C22.2638 40.9592 22.2324 40.8492 22.2166 40.7076C22.2009 40.5661 22.2009 40.4404 22.1852 40.3617C22.1852 40.2831 22.1852 40.1731 22.1852 40.0473C22.1852 39.8114 22.2009 39.5913 22.2166 39.4026C22.2324 39.2297 22.2795 39.041 22.3267 38.8837C22.3739 38.7422 22.4525 38.6322 22.5468 38.5536C22.6412 38.4749 22.767 38.4435 22.9085 38.4435C23.0185 38.4435 23.0972 38.4592 23.1915 38.5064C23.2701 38.5378 23.3173 38.6007 23.3645 38.6636C23.4116 38.758 23.4588 38.8523 23.4902 38.9466C23.5217 39.0253 23.5531 39.151 23.5531 39.2768C23.5688 39.4183 23.5689 39.5441 23.5846 39.6385C23.5846 39.7328 23.5846 39.8586 23.5846 40.0001C23.5846 40.5347 23.5217 40.9592 23.4116 41.2265C23.3487 41.4938 23.1915 41.6039 22.9242 41.6039Z" fill="url(#paint50_linear_107_1715)"/>
<path d="M26.9967 37.5315C27.437 37.5315 27.8144 37.6573 28.0974 37.9246C28.3961 38.1919 28.5534 38.5693 28.5534 39.0567C28.5534 39.3397 28.4905 39.607 28.3647 39.8586C28.3175 39.9529 28.2546 40.0473 28.1917 40.1573C28.1288 40.2517 28.0659 40.346 28.0188 40.4089C27.9716 40.4718 27.893 40.5661 27.7672 40.6605C27.6414 40.7548 27.5785 40.8334 27.5471 40.8649C27.5156 40.8963 27.4213 40.9749 27.2798 41.1007C27.1383 41.2265 27.0439 41.2894 27.0439 41.3051C26.7923 41.5095 26.6194 41.651 26.525 41.7139H28.6477V42.4686H25.3458V41.7611C26.0219 41.2737 26.5879 40.7863 27.0439 40.2674C27.3898 39.8743 27.5628 39.4812 27.5628 39.0724C27.5628 38.868 27.4999 38.6793 27.3898 38.5536C27.2798 38.412 27.1225 38.3492 26.9181 38.3492C26.7609 38.3492 26.6351 38.3806 26.5408 38.4435C26.4464 38.5064 26.3678 38.6007 26.3364 38.7265C26.3049 38.8523 26.2735 38.9624 26.2578 39.041C26.242 39.1353 26.242 39.2454 26.242 39.3712V39.4655L25.3458 39.3869V39.3554C25.3458 38.8523 25.4559 38.4435 25.6917 38.129C25.8018 37.9718 25.9747 37.8303 26.1949 37.7045C26.3993 37.5944 26.6666 37.5315 26.9967 37.5315ZM26.9967 37.4058C26.6508 37.4058 26.3521 37.4687 26.1005 37.6102C25.8647 37.7517 25.676 37.9089 25.5659 38.0661C25.3144 38.3963 25.1886 38.8366 25.1886 39.3712V39.4026V39.5284L25.3144 39.5441L26.2106 39.6227L26.3521 39.6385V39.4812V39.3869C26.3521 39.2611 26.3521 39.151 26.3678 39.0724C26.3835 38.9938 26.3993 38.8837 26.4307 38.7737C26.4622 38.6793 26.5093 38.6164 26.5879 38.5693C26.6666 38.5221 26.7609 38.4907 26.8867 38.4907C27.0439 38.4907 27.1697 38.5378 27.264 38.6479C27.3584 38.758 27.4055 38.8995 27.4055 39.0881C27.4055 39.4498 27.2326 39.8271 26.9181 40.1888C26.4622 40.6919 25.8961 41.1951 25.2357 41.6668L25.1729 41.7139V41.7768V42.4844V42.6259H25.3144H28.6162H28.7578V42.4844V41.7297V41.5881H28.6477H26.9181C26.981 41.541 27.0439 41.4781 27.1225 41.4152C27.1225 41.4152 27.154 41.3837 27.3584 41.2265C27.4999 41.1007 27.5942 41.0221 27.6414 40.9907C27.6728 40.9592 27.7515 40.8963 27.8615 40.7863C27.9873 40.6762 28.0659 40.5819 28.1288 40.519C28.176 40.4561 28.2389 40.3775 28.3175 40.2674C28.3961 40.1573 28.459 40.063 28.5062 39.9529C28.6477 39.6699 28.7106 39.3869 28.7106 39.0881C28.7106 38.5693 28.5376 38.1447 28.2074 37.8617C27.8773 37.5473 27.4842 37.4058 26.9967 37.4058Z" fill="url(#paint51_linear_107_1715)"/>
<path d="M31.0534 37.5315C31.4936 37.5315 31.871 37.6573 32.154 37.9246C32.4528 38.1919 32.61 38.5693 32.61 39.0567C32.61 39.3397 32.5471 39.607 32.4213 39.8586C32.3741 39.9529 32.3113 40.0473 32.2484 40.1573C32.1855 40.2517 32.1226 40.346 32.0754 40.4089C32.0282 40.4718 31.9496 40.5661 31.8238 40.6605C31.7138 40.7705 31.6351 40.8334 31.6037 40.8649C31.5723 40.8963 31.4779 40.9749 31.3364 41.1007C31.1949 41.2265 31.1006 41.2894 31.1006 41.3051C30.849 41.5095 30.676 41.651 30.5817 41.7139H32.7201V42.4686H29.4182V41.7611C30.0943 41.2737 30.6603 40.7863 31.1163 40.2674C31.4622 39.8743 31.6352 39.4812 31.6352 39.0724C31.6352 38.868 31.5723 38.6793 31.4622 38.5536C31.3521 38.412 31.1949 38.3492 30.9905 38.3492C30.8333 38.3492 30.7075 38.3806 30.6131 38.4435C30.5188 38.5064 30.4402 38.6007 30.4087 38.7265C30.3773 38.8523 30.3458 38.9624 30.3301 39.041C30.3144 39.1353 30.3144 39.2454 30.3144 39.3712V39.4655L29.4182 39.3869V39.3554C29.4182 38.8523 29.5282 38.4435 29.7641 38.129C29.8741 37.9718 30.0471 37.8303 30.2672 37.7045C30.4402 37.5944 30.7232 37.5315 31.0534 37.5315ZM31.0534 37.4058C30.7075 37.4058 30.4087 37.4687 30.1572 37.6102C29.9213 37.7517 29.7326 37.9089 29.6226 38.0661C29.371 38.3963 29.2452 38.8366 29.2452 39.3712V39.4026V39.5284L29.371 39.5441L30.2672 39.6227L30.4087 39.6385V39.4812V39.3869C30.4087 39.2611 30.4087 39.151 30.4245 39.0724C30.4402 38.9938 30.4559 38.8837 30.4874 38.7737C30.5188 38.6793 30.566 38.6164 30.6446 38.5693C30.7232 38.5221 30.8175 38.4907 30.9433 38.4907C31.1006 38.4907 31.2263 38.5378 31.3207 38.6479C31.415 38.758 31.4622 38.8995 31.4622 39.0881C31.4622 39.4498 31.2892 39.8271 30.9748 40.1888C30.5188 40.6919 29.9528 41.1951 29.2924 41.6668L29.2295 41.7139V41.7768V42.4844V42.6259H29.371H32.6729H32.8144V42.4844V41.7297V41.5881H32.6729H30.9433C31.0062 41.541 31.0691 41.4781 31.1477 41.4152C31.1477 41.4152 31.1792 41.3837 31.3836 41.2265C31.5251 41.1007 31.6194 41.0221 31.6666 40.9907C31.698 40.9592 31.7767 40.8963 31.8867 40.7863C32.0125 40.6762 32.0911 40.5819 32.154 40.519C32.2012 40.4561 32.2641 40.3775 32.3427 40.2674C32.4213 40.1573 32.4842 40.063 32.5314 39.9529C32.6729 39.6699 32.7358 39.3869 32.7358 39.0881C32.7358 38.5693 32.5628 38.1447 32.2326 37.8617C31.9339 37.5473 31.5251 37.4058 31.0534 37.4058Z" fill="url(#paint52_linear_107_1715)"/>
</g>
<path opacity="0.45" d="M28.6161 5.14158C27.1066 5.25165 25.7544 6.44662 24.9997 7.10699C24.2607 6.46234 22.8928 5.25165 21.3834 5.14158C18.7419 4.95291 17.2324 6.66674 17.2324 9.40259C17.2324 11.5881 19.1192 13.4592 21.1161 15.5189C22.8771 17.3428 24.9997 19.4183 24.9997 19.4183C24.9997 19.4183 27.1066 17.3271 28.8834 15.5189C30.8959 13.4749 32.767 11.5881 32.767 9.40259C32.767 6.68246 31.2733 4.95291 28.6161 5.14158Z" fill="url(#paint53_linear_107_1715)"/>
<path opacity="0.51" d="M28.6161 5.01561C27.1066 5.12567 25.7544 6.32064 24.9997 6.98102C24.2607 6.33636 22.8928 5.12567 21.3834 5.01561C18.7419 4.82693 17.2324 6.54077 17.2324 9.27662C17.2324 11.4622 19.1192 13.3332 21.1161 15.393C22.8771 17.2169 24.9997 19.2923 24.9997 19.2923C24.9997 19.2923 27.1066 17.2011 28.8834 15.393C30.8959 13.3489 32.767 11.4622 32.767 9.27662C32.767 6.54077 31.2733 4.81121 28.6161 5.01561Z" stroke="url(#paint54_linear_107_1715)" stroke-width="0.5" stroke-miterlimit="10"/>
<path opacity="0.58" d="M24.9367 47.7672C37.4673 47.7672 47.6254 37.6092 47.6254 25.0786C47.6254 12.548 37.4673 2.38989 24.9367 2.38989C12.4061 2.38989 2.24805 12.548 2.24805 25.0786C2.24805 37.6092 12.4061 47.7672 24.9367 47.7672Z" stroke="url(#paint55_linear_107_1715)" stroke-width="0.5" stroke-miterlimit="10"/>
<defs>
<linearGradient id="paint0_linear_107_1715" x1="9.9317" y1="6.22816" x2="39.7254" y2="43.3396" gradientUnits="userSpaceOnUse">
<stop stop-color="#FDDE9A"/>
<stop offset="1" stop-color="#C78F26"/>
</linearGradient>
<linearGradient id="paint1_linear_107_1715" x1="41.9454" y1="11.405" x2="8.46443" y2="38.2841" gradientUnits="userSpaceOnUse">
<stop stop-color="#FDCE69"/>
<stop offset="1" stop-color="#F0B951"/>
</linearGradient>
<linearGradient id="paint2_linear_107_1715" x1="1.29764" y1="17.9045" x2="30.6648" y2="39.8025" gradientUnits="userSpaceOnUse">
<stop offset="0.000677765" stop-color="#664A32"/>
<stop offset="0.9994" stop-color="#332519"/>
</linearGradient>
<linearGradient id="paint3_linear_107_1715" x1="2.15098" y1="16.7597" x2="31.5181" y2="38.6577" gradientUnits="userSpaceOnUse">
<stop offset="0.000677765" stop-color="#664A32"/>
<stop offset="0.9994" stop-color="#332519"/>
</linearGradient>
<linearGradient id="paint4_linear_107_1715" x1="3.12579" y1="15.4533" x2="32.493" y2="37.3514" gradientUnits="userSpaceOnUse">
<stop offset="0.000677765" stop-color="#664A32"/>
<stop offset="0.9994" stop-color="#332519"/>
</linearGradient>
<linearGradient id="paint5_linear_107_1715" x1="4.01208" y1="14.2638" x2="33.3793" y2="36.1619" gradientUnits="userSpaceOnUse">
<stop offset="0.000677765" stop-color="#664A32"/>
<stop offset="0.9994" stop-color="#332519"/>
</linearGradient>
<linearGradient id="paint6_linear_107_1715" x1="4.99879" y1="12.9405" x2="34.366" y2="34.8386" gradientUnits="userSpaceOnUse">
<stop offset="0.000677765" stop-color="#664A32"/>
<stop offset="0.9994" stop-color="#332519"/>
</linearGradient>
<linearGradient id="paint7_linear_107_1715" x1="5.98156" y1="11.6235" x2="35.3488" y2="33.5217" gradientUnits="userSpaceOnUse">
<stop offset="0.000677765" stop-color="#664A32"/>
<stop offset="0.9994" stop-color="#332519"/>
</linearGradient>
<linearGradient id="paint8_linear_107_1715" x1="6.85236" y1="10.4554" x2="36.2196" y2="32.3534" gradientUnits="userSpaceOnUse">
<stop offset="0.000677765" stop-color="#664A32"/>
<stop offset="0.9994" stop-color="#332519"/>
</linearGradient>
<linearGradient id="paint9_linear_107_1715" x1="7.5527" y1="9.51606" x2="36.9199" y2="31.4141" gradientUnits="userSpaceOnUse">
<stop offset="0.000677765" stop-color="#664A32"/>
<stop offset="0.9994" stop-color="#332519"/>
</linearGradient>
<linearGradient id="paint10_linear_107_1715" x1="8.64193" y1="8.05509" x2="38.0091" y2="29.9532" gradientUnits="userSpaceOnUse">
<stop offset="0.000677765" stop-color="#664A32"/>
<stop offset="0.9994" stop-color="#332519"/>
</linearGradient>
<linearGradient id="paint11_linear_107_1715" x1="9.35802" y1="7.09487" x2="38.7252" y2="28.9929" gradientUnits="userSpaceOnUse">
<stop offset="0.000677765" stop-color="#664A32"/>
<stop offset="0.9994" stop-color="#332519"/>
</linearGradient>
<linearGradient id="paint12_linear_107_1715" x1="10.2161" y1="5.94447" x2="39.5832" y2="27.8425" gradientUnits="userSpaceOnUse">
<stop offset="0.000677765" stop-color="#664A32"/>
<stop offset="0.9994" stop-color="#332519"/>
</linearGradient>
<linearGradient id="paint13_linear_107_1715" x1="10.9771" y1="4.92352" x2="40.3443" y2="26.8216" gradientUnits="userSpaceOnUse">
<stop offset="0.000677765" stop-color="#664A32"/>
<stop offset="0.9994" stop-color="#332519"/>
</linearGradient>
<linearGradient id="paint14_linear_107_1715" x1="12.1574" y1="3.3403" x2="41.5245" y2="25.2384" gradientUnits="userSpaceOnUse">
<stop offset="0.000677765" stop-color="#664A32"/>
<stop offset="0.9994" stop-color="#332519"/>
</linearGradient>
<linearGradient id="paint15_linear_107_1715" x1="13.2466" y1="1.88015" x2="42.6138" y2="23.7783" gradientUnits="userSpaceOnUse">
<stop offset="0.000677765" stop-color="#664A32"/>
<stop offset="0.9994" stop-color="#332519"/>
</linearGradient>
<linearGradient id="paint16_linear_107_1715" x1="14.405" y1="0.325835" x2="43.7722" y2="22.224" gradientUnits="userSpaceOnUse">
<stop offset="0.000677765" stop-color="#664A32"/>
<stop offset="0.9994" stop-color="#332519"/>
</linearGradient>
<linearGradient id="paint17_linear_107_1715" x1="0.849743" y1="18.5046" x2="30.2169" y2="40.4027" gradientUnits="userSpaceOnUse">
<stop offset="0.000677765" stop-color="#664A32"/>
<stop offset="0.9994" stop-color="#332519"/>
</linearGradient>
<linearGradient id="paint18_linear_107_1715" x1="1.61968" y1="17.4723" x2="30.9868" y2="39.3704" gradientUnits="userSpaceOnUse">
<stop offset="0.000677765" stop-color="#664A32"/>
<stop offset="0.9994" stop-color="#332519"/>
</linearGradient>
<linearGradient id="paint19_linear_107_1715" x1="2.65653" y1="16.0818" x2="32.0237" y2="37.9799" gradientUnits="userSpaceOnUse">
<stop offset="0.000677765" stop-color="#664A32"/>
<stop offset="0.9994" stop-color="#332519"/>
</linearGradient>
<linearGradient id="paint20_linear_107_1715" x1="3.64571" y1="14.7551" x2="33.0129" y2="36.6532" gradientUnits="userSpaceOnUse">
<stop offset="0.000677765" stop-color="#664A32"/>
<stop offset="0.9994" stop-color="#332519"/>
</linearGradient>
<linearGradient id="paint21_linear_107_1715" x1="4.66238" y1="13.3919" x2="34.0295" y2="35.2899" gradientUnits="userSpaceOnUse">
<stop offset="0.000677765" stop-color="#664A32"/>
<stop offset="0.9994" stop-color="#332519"/>
</linearGradient>
<linearGradient id="paint22_linear_107_1715" x1="5.44758" y1="12.3396" x2="34.8148" y2="34.2376" gradientUnits="userSpaceOnUse">
<stop offset="0.000677765" stop-color="#664A32"/>
<stop offset="0.9994" stop-color="#332519"/>
</linearGradient>
<linearGradient id="paint23_linear_107_1715" x1="6.31366" y1="11.1771" x2="35.6809" y2="33.0752" gradientUnits="userSpaceOnUse">
<stop offset="0.000677765" stop-color="#664A32"/>
<stop offset="0.9994" stop-color="#332519"/>
</linearGradient>
<linearGradient id="paint24_linear_107_1715" x1="7.3214" y1="9.82581" x2="36.6885" y2="31.7239" gradientUnits="userSpaceOnUse">
<stop offset="0.000677765" stop-color="#664A32"/>
<stop offset="0.9994" stop-color="#332519"/>
</linearGradient>
<linearGradient id="paint25_linear_107_1715" x1="8.41076" y1="8.36486" x2="37.7778" y2="30.2629" gradientUnits="userSpaceOnUse">
<stop offset="0.000677765" stop-color="#664A32"/>
<stop offset="0.9994" stop-color="#332519"/>
</linearGradient>
<linearGradient id="paint26_linear_107_1715" x1="9.12673" y1="7.40464" x2="38.4938" y2="29.3027" gradientUnits="userSpaceOnUse">
<stop offset="0.000677765" stop-color="#664A32"/>
<stop offset="0.9994" stop-color="#332519"/>
</linearGradient>
<linearGradient id="paint27_linear_107_1715" x1="9.98473" y1="6.25432" x2="39.3519" y2="28.1524" gradientUnits="userSpaceOnUse">
<stop offset="0.000677765" stop-color="#664A32"/>
<stop offset="0.9994" stop-color="#332519"/>
</linearGradient>
<linearGradient id="paint28_linear_107_1715" x1="10.7459" y1="5.23338" x2="40.113" y2="27.1315" gradientUnits="userSpaceOnUse">
<stop offset="0.000677765" stop-color="#664A32"/>
<stop offset="0.9994" stop-color="#332519"/>
</linearGradient>
<linearGradient id="paint29_linear_107_1715" x1="15.6009" y1="23.9377" x2="38.4195" y2="40.9527" gradientUnits="userSpaceOnUse">
<stop offset="0.000677765" stop-color="#664A32"/>
<stop offset="0.9994" stop-color="#332519"/>
</linearGradient>
<linearGradient id="paint30_linear_107_1715" x1="11.3623" y1="29.6225" x2="34.1809" y2="46.6375" gradientUnits="userSpaceOnUse">
<stop offset="0.000677765" stop-color="#664A32"/>
<stop offset="0.9994" stop-color="#332519"/>
</linearGradient>
<linearGradient id="paint31_linear_107_1715" x1="10.0082" y1="31.4376" x2="32.8268" y2="48.4527" gradientUnits="userSpaceOnUse">
<stop offset="0.000677765" stop-color="#664A32"/>
<stop offset="0.9994" stop-color="#332519"/>
</linearGradient>
<linearGradient id="paint32_linear_107_1715" x1="16.5995" y1="22.5986" x2="39.4182" y2="39.6137" gradientUnits="userSpaceOnUse">
<stop offset="0.000677765" stop-color="#664A32"/>
<stop offset="0.9994" stop-color="#332519"/>
</linearGradient>
<linearGradient id="paint33_linear_107_1715" x1="12.306" y1="28.3564" x2="35.1247" y2="45.3714" gradientUnits="userSpaceOnUse">
<stop offset="0.000677765" stop-color="#664A32"/>
<stop offset="0.9994" stop-color="#332519"/>
</linearGradient>
<linearGradient id="paint34_linear_107_1715" x1="19.1643" y1="19.1585" x2="41.9829" y2="36.1735" gradientUnits="userSpaceOnUse">
<stop offset="0.000677765" stop-color="#664A32"/>
<stop offset="0.9994" stop-color="#332519"/>
</linearGradient>
<linearGradient id="paint35_linear_107_1715" x1="14.296" y1="25.6868" x2="37.1146" y2="42.7019" gradientUnits="userSpaceOnUse">
<stop offset="0.000677765" stop-color="#664A32"/>
<stop offset="0.9994" stop-color="#332519"/>
</linearGradient>
<linearGradient id="paint36_linear_107_1715" x1="17.8642" y1="20.9017" x2="40.6828" y2="37.9167" gradientUnits="userSpaceOnUse">
<stop offset="0.000677765" stop-color="#664A32"/>
<stop offset="0.9994" stop-color="#332519"/>
</linearGradient>
<linearGradient id="paint37_linear_107_1715" x1="28.6512" y1="35.5514" x2="27.8652" y2="31.0935" gradientUnits="userSpaceOnUse">
<stop stop-color="#FFEABA"/>
<stop offset="1" stop-color="#8A3A3A"/>
</linearGradient>
<linearGradient id="paint38_linear_107_1715" x1="16.6861" y1="35.8977" x2="15.8139" y2="30.9512" gradientUnits="userSpaceOnUse">
<stop stop-color="#FFEABA"/>
<stop offset="1" stop-color="#8A3A3A"/>
</linearGradient>
<linearGradient id="paint39_linear_107_1715" x1="12.1301" y1="35.7415" x2="11.0384" y2="29.5506" gradientUnits="userSpaceOnUse">
<stop stop-color="#FFEABA"/>
<stop offset="1" stop-color="#8A3A3A"/>
</linearGradient>
<linearGradient id="paint40_linear_107_1715" x1="30.6024" y1="35.605" x2="29.5631" y2="29.7106" gradientUnits="userSpaceOnUse">
<stop stop-color="#FFEABA"/>
<stop offset="1" stop-color="#8A3A3A"/>
</linearGradient>
<linearGradient id="paint41_linear_107_1715" x1="20.8045" y1="36.7244" x2="19.7953" y2="31.001" gradientUnits="userSpaceOnUse">
<stop stop-color="#FFEABA"/>
<stop offset="1" stop-color="#8A3A3A"/>
</linearGradient>
<linearGradient id="paint42_linear_107_1715" x1="38.9036" y1="35.7298" x2="37.7884" y2="29.4052" gradientUnits="userSpaceOnUse">
<stop stop-color="#FFEABA"/>
<stop offset="1" stop-color="#8A3A3A"/>
</linearGradient>
<linearGradient id="paint43_linear_107_1715" x1="25.0998" y1="35.7569" x2="24.2952" y2="31.1937" gradientUnits="userSpaceOnUse">
<stop stop-color="#FFEABA"/>
<stop offset="1" stop-color="#8A3A3A"/>
</linearGradient>
<linearGradient id="paint44_linear_107_1715" x1="34.5831" y1="35.9293" x2="33.7064" y2="30.9575" gradientUnits="userSpaceOnUse">
<stop stop-color="#FFEABA"/>
<stop offset="1" stop-color="#8A3A3A"/>
</linearGradient>
<linearGradient id="paint45_linear_107_1715" x1="0.618275" y1="26.7731" x2="29.9854" y2="48.6712" gradientUnits="userSpaceOnUse">
<stop offset="0.000677765" stop-color="#664A32"/>
<stop offset="0.9994" stop-color="#332519"/>
</linearGradient>
<linearGradient id="paint46_linear_107_1715" x1="2.21743" y1="24.6289" x2="31.5846" y2="46.527" gradientUnits="userSpaceOnUse">
<stop offset="0.000677765" stop-color="#664A32"/>
<stop offset="0.9994" stop-color="#332519"/>
</linearGradient>
<linearGradient id="paint47_linear_107_1715" x1="3.51077" y1="22.8945" x2="32.8779" y2="44.7925" gradientUnits="userSpaceOnUse">
<stop offset="0.000677765" stop-color="#664A32"/>
<stop offset="0.9994" stop-color="#332519"/>
</linearGradient>
<linearGradient id="paint48_linear_107_1715" x1="4.95685" y1="20.9551" x2="34.324" y2="42.8532" gradientUnits="userSpaceOnUse">
<stop offset="0.000677765" stop-color="#664A32"/>
<stop offset="0.9994" stop-color="#332519"/>
</linearGradient>
<linearGradient id="paint49_linear_107_1715" x1="19.6945" y1="42.9728" x2="17.7677" y2="37.6791" gradientUnits="userSpaceOnUse">
<stop stop-color="#FFEABA"/>
<stop offset="1" stop-color="#8A3A3A"/>
</linearGradient>
<linearGradient id="paint50_linear_107_1715" x1="23.7897" y1="42.4858" x2="22.0134" y2="37.6056" gradientUnits="userSpaceOnUse">
<stop stop-color="#FFEABA"/>
<stop offset="1" stop-color="#8A3A3A"/>
</linearGradient>
<linearGradient id="paint51_linear_107_1715" x1="27.7885" y1="42.9728" x2="25.8617" y2="37.6791" gradientUnits="userSpaceOnUse">
<stop stop-color="#FFEABA"/>
<stop offset="1" stop-color="#8A3A3A"/>
</linearGradient>
<linearGradient id="paint52_linear_107_1715" x1="31.8354" y1="42.9728" x2="29.9087" y2="37.6791" gradientUnits="userSpaceOnUse">
<stop stop-color="#FFEABA"/>
<stop offset="1" stop-color="#8A3A3A"/>
</linearGradient>
<linearGradient id="paint53_linear_107_1715" x1="32.4031" y1="16.1371" x2="19.9178" y2="5.87525" gradientUnits="userSpaceOnUse">
<stop offset="8.07343e-08" stop-color="#FDDB93"/>
<stop offset="1" stop-color="#A36230"/>
</linearGradient>
<linearGradient id="paint54_linear_107_1715" x1="30.0661" y1="15.2204" x2="20.5892" y2="3.92638" gradientUnits="userSpaceOnUse">
<stop stop-color="#FFEABA"/>
<stop offset="1" stop-color="#8A3A3A"/>
</linearGradient>
<linearGradient id="paint55_linear_107_1715" x1="47.2238" y1="29.7436" x2="2.53836" y2="20.3371" gradientUnits="userSpaceOnUse">
<stop stop-color="white"/>
<stop offset="1" stop-color="#8A3A3A"/>
</linearGradient>
</defs>
</svg>
